<?xml version="1.0" encoding="utf-8"?>
<svg width="48px" height="48px" viewBox="0 0 48 48" version="1.1" xmlns:xlink="http://www.w3.org/1999/xlink" xmlns="http://www.w3.org/2000/svg">
  <defs>
    <path d="M48 0L48 0L48 48L0 48L0 0L48 0Z" id="path_1" />
    <clipPath id="clip_1">
      <use xlink:href="#path_1" clip-rule="evenodd" fill-rule="evenodd" />
    </clipPath>
  </defs>
  <g id="Behance">
    <path d="M48 0L48 0L48 48L0 48L0 0L48 0Z" id="Behance" fill="none" stroke="none" />
    <path d="M6 10C6 7.791 7.791 6 10 6L38 6C40.209 6 42 7.791 42 10L42 38C42 40.209 40.209 42 38 42L10 42C7.791 42 6 40.209 6 38L6 10L6 10Z" id="Shape" fill="#2196F3" stroke="none" clip-path="url(#clip_1)" />
    <path d="M27 17L34 17L34 19L27 19L27 17ZM21.512 23.428C22.097 23.143 23.415 22.494 23.415 20.571C23.415 16.954 19.463 17.001 18.732 17.001L12 17.001L12 31.001L19.025 31.001C19.61 31 24 30.835 24 26.999C24 24.524 22.39 23.714 21.512 23.428L21.512 23.428ZM15 19.428L17.928 19.428C18.22 19.428 20.123 19.532 20.123 21C20.123 22.467 18.66 22.714 18.221 22.714L15 22.714L15 19.428L15 19.428ZM18.336 28.571L14.969 28.571L14.969 24.715L18.336 24.715C19.067 24.715 20.677 24.952 20.677 26.715C20.677 28.476 18.628 28.571 18.336 28.571L18.336 28.571ZM32.438 28.395C31.973 28.684 31.509 28.831 30.889 28.831C28.563 28.831 28.1 26.87 28.1 26.001L36 26.001C36 25.132 36 24.49 35.845 23.765C35.689 23.04 34.63 20 30.734 20C25.289 20 25 24.778 25 25.5C25 26.223 25.156 27.093 25.467 27.671C25.776 28.395 26.086 28.975 26.551 29.407C27.015 29.842 27.634 30.273 28.254 30.564C29.028 30.855 29.803 31 30.578 31C31.816 31 32.902 30.712 33.831 30.132C34.762 29.553 35.381 28.684 35.845 27.526L33.212 27.526C33.057 27.816 32.902 28.104 32.438 28.395L32.438 28.395ZM30.734 22.027C32.252 22.027 32.902 23.619 33.056 24.341L28.1 24.341C28.1 24.198 28.471 22.027 30.734 22.027L30.734 22.027Z" id="Shape" fill="#FFFFFF" fill-rule="evenodd" stroke="none" clip-path="url(#clip_1)" />
  </g>
</svg>