<?xml version="1.0" encoding="utf-8"?>
<svg width="48px" height="48px" viewBox="0 0 48 48" version="1.1" xmlns:xlink="http://www.w3.org/1999/xlink" xmlns="http://www.w3.org/2000/svg">
  <defs>
    <radialGradient gradientUnits="objectBoundingBox" cx="37.174828%" cy="100.07217%" fx="37.174828%" fy="100.07217%" r="124.65363%" gradientTransform="translate(0.37174827,1.0007217),translate(-0.37174827,-1.0007217)" id="gradient_1">
      <stop offset="0%" stop-color="#FFDD55" />
      <stop offset="32.8%" stop-color="#FF543F" />
      <stop offset="34.8%" stop-color="#FC5245" />
      <stop offset="50.4%" stop-color="#E64771" />
      <stop offset="64.3%" stop-color="#D53E91" />
      <stop offset="76.1%" stop-color="#CC39A4" />
      <stop offset="84.1%" stop-color="#C837AB" />
    </radialGradient>
    <radialGradient gradientUnits="objectBoundingBox" cx="16.091518%" cy="-1.2484975%" fx="16.091518%" fy="-1.2484975%" r="82.77019%" gradientTransform="translate(0.16091518,-0.012484975),scale(1,0.66630006),translate(-0.16091518,0.012484975)" id="gradient_2">
      <stop offset="0%" stop-color="#4168C9" />
      <stop offset="99.9%" stop-color="#4168C9" stop-opacity="0" />
    </radialGradient>
    <path d="M48 0L48 0L48 48L0 48L0 0L48 0Z" id="path_1" />
    <clipPath id="clip_1">
      <use xlink:href="#path_1" clip-rule="evenodd" fill-rule="evenodd" />
    </clipPath>
  </defs>
  <g id="Instagram">
    <path d="M48 0L48 0L48 48L0 48L0 0L48 0Z" id="Instagram" fill="none" stroke="none" />
    <path d="M34.017 41.99L14.017 42.009C9.617 42.013 6.014 38.417 6.009 34.017L5.99 14.017C5.986 9.617 9.582 6.014 13.982 6.009L33.982 5.99C38.382 5.986 41.985 9.582 41.99 13.982L42.009 33.982C42.014 38.383 38.417 41.986 34.017 41.99L34.017 41.99Z" id="Path" fill="url(#gradient_1)" stroke="none" clip-path="url(#clip_1)" />
    <path d="M34.017 41.99L14.017 42.009C9.617 42.013 6.014 38.417 6.009 34.017L5.99 14.017C5.986 9.617 9.582 6.014 13.982 6.009L33.982 5.99C38.382 5.986 41.985 9.582 41.99 13.982L42.009 33.982C42.014 38.383 38.417 41.986 34.017 41.99L34.017 41.99Z" id="Path" fill="url(#gradient_2)" stroke="none" clip-path="url(#clip_1)" />
    <path d="M24 31C20.141 31 17 27.86 17 24C17 20.14 20.141 17 24 17C27.859 17 31 20.14 31 24C31 27.86 27.859 31 24 31L24 31ZM24 19C21.243 19 19 21.243 19 24C19 26.757 21.243 29 24 29C26.757 29 29 26.757 29 24C29 21.243 26.757 19 24 19L24 19Z" id="Shape" fill="#FFFFFF" fill-rule="evenodd" stroke="none" clip-path="url(#clip_1)" />
    <path d="M30 16.5C30 15.6716 30.6716 15 31.5 15C32.3284 15 33 15.6716 33 16.5C33 17.3284 32.3284 18 31.5 18C30.6716 18 30 17.3284 30 16.5Z" id="Oval" fill="#FFFFFF" fill-rule="evenodd" stroke="none" clip-path="url(#clip_1)" />
    <path d="M30 37L18 37C14.141 37 11 33.86 11 30L11 18C11 14.14 14.141 11 18 11L30 11C33.859 11 37 14.14 37 18L37 30C37 33.86 33.859 37 30 37L30 37ZM18 13C15.243 13 13 15.243 13 18L13 30C13 32.757 15.243 35 18 35L30 35C32.757 35 35 32.757 35 30L35 18C35 15.243 32.757 13 30 13L18 13L18 13Z" id="Shape" fill="#FFFFFF" fill-rule="evenodd" stroke="none" clip-path="url(#clip_1)" />
  </g>
</svg>