<?xml version="1.0" encoding="utf-8"?>
<svg width="48px" height="48px" viewBox="0 0 48 48" version="1.1" xmlns:xlink="http://www.w3.org/1999/xlink" xmlns="http://www.w3.org/2000/svg">
  <defs>
    <path d="M48 0L48 0L48 48L0 48L0 0L48 0Z" id="path_1" />
    <clipPath id="clip_1">
      <use xlink:href="#path_1" clip-rule="evenodd" fill-rule="evenodd" />
    </clipPath>
  </defs>
  <g id="Pinterest">
    <path d="M48 0L48 0L48 48L0 48L0 0L48 0Z" id="Pinterest" fill="none" stroke="none" />
    <path d="M5 24.001C5 13.5076 13.5066 5.001 24 5.001C34.4934 5.001 43 13.5076 43 24.001C43 34.4944 34.4934 43.001 24 43.001C13.5066 43.001 5 34.4944 5 24.001Z" id="Circle" fill="#D32F2F" fill-rule="evenodd" stroke="none" clip-path="url(#clip_1)" />
    <path d="M17.053 41.672C17.022 41.022 17.026 37.661 19.366 27.623C19.679 24.275 19.244 23.086 19.244 21.694C19.244 18.537 20.884 17.873 21.842 17.873C23.208 17.873 25.094 18.395 25.094 20.596C25.094 23.117 23.038 23.78 23.038 23.78C23.038 23.78 22.89 24.425 22.72 26.216C22.549 28.011 23.266 29.952 26.193 29.952C30.888 29.952 31.611 23.438 31.611 21.646C31.611 19.169 29.797 14.141 24.161 14.141C16.646 14.141 15.353 20.875 15.353 22.67C15.353 23.438 15.565 24.793 15.71 25.373C17.129 25.602 16.982 27.545 16.376 28.098C15.701 28.703 12.234 29.426 12.234 21.817C12.234 14.571 18.693 10.835 24.362 10.835C29.758 10.835 35.637 14.56 35.637 21.733C35.637 28.135 31.033 33.176 26.198 33.176C23.296 33.176 21.757 30.784 21.757 30.784C21.757 33.023 17.644 40.718 17.118 41.696" id="Shape" fill="#FFFFFF" stroke="none" clip-path="url(#clip_1)" />
  </g>
</svg>